<svg xmlns="http://www.w3.org/2000/svg" xmlns:xlink="http://www.w3.org/1999/xlink" viewBox="0,0,256,256" width="24px" height="24px" fill-rule="nonzero"><g fill="#14ffff" fill-rule="nonzero" stroke="none" stroke-width="1" stroke-linecap="butt" stroke-linejoin="miter" stroke-miterlimit="10" stroke-dasharray="" stroke-dashoffset="0" font-family="none" font-weight="none" font-size="none" text-anchor="none" style="mix-blend-mode: normal"><g transform="scale(10.66667,10.66667)"><path d="M21.936,2.444c-0.745,-0.521 -1.683,-0.599 -2.506,-0.207l-17.48,9.208c-1.317,0.694 -1.238,2.589 0.12,3.199c0.305,0.137 0.575,0.243 0.774,0.292l2.056,0.544c0.663,0.175 1.369,0.032 1.912,-0.386l8.981,-6.932c0.309,-0.24 0.749,-0.202 1.015,0.086c0.264,0.288 0.262,0.731 -0.006,1.018l-6.587,7.054c-0.237,0.239 -0.345,0.543 -0.311,0.854c0.014,0.129 0.065,0.339 0.224,0.527c0.091,0.082 0.189,0.159 0.293,0.231l0.663,0.35l7.423,3.534c1.217,0.579 2.642,-0.216 2.788,-1.556l1.691,-15.531c0.089,-0.909 -0.303,-1.762 -1.05,-2.285z"></path></g></g></svg>